<svg width="30" height="30" viewBox="0 0 30 30" fill="none" xmlns="http://www.w3.org/2000/svg">
<g clip-path="url(#clip0_2057_2073)">
<path d="M23.75 26.25H6.25C5.58696 26.25 4.95107 25.9866 4.48223 25.5178C4.01339 25.0489 3.75 24.413 3.75 23.75V13.75C3.75 13.087 4.01339 12.4511 4.48223 11.9822C4.95107 11.5134 5.58696 11.25 6.25 11.25H23.75C24.413 11.25 25.0489 11.5134 25.5178 11.9822C25.9866 12.4511 26.25 13.087 26.25 13.75V23.75C26.25 24.413 25.9866 25.0489 25.5178 25.5178C25.0489 25.9866 24.413 26.25 23.75 26.25Z" stroke="white" stroke-width="1.9" stroke-linecap="round" stroke-linejoin="round"/>
<path d="M5 11.5855V10C4.99991 9.67179 5.06446 9.34677 5.18998 9.0435C5.3155 8.74023 5.49952 8.46466 5.73154 8.23251C5.96356 8.00037 6.23903 7.81619 6.54223 7.69051C6.84543 7.56482 7.17041 7.50009 7.49863 7.5H22.5C22.8282 7.49991 23.1532 7.56446 23.4565 7.68998C23.7598 7.8155 24.0353 7.99952 24.2675 8.23154C24.4996 8.46356 24.6838 8.73903 24.8095 9.04223C24.9352 9.34543 24.9999 9.67041 25 9.99863V11.5851" stroke="white" stroke-width="1.9" stroke-linecap="round" stroke-linejoin="round"/>
<path d="M12.8125 18.75H17.1875" stroke="white" stroke-width="1.9" stroke-linecap="round" stroke-linejoin="round"/>
<path d="M15 20.9375V16.5625" stroke="white" stroke-width="1.9" stroke-linecap="round" stroke-linejoin="round"/>
<path d="M6.25 7.83506V6.25C6.24991 5.92179 6.31446 5.59677 6.43998 5.2935C6.5655 4.99023 6.74952 4.71466 6.98154 4.48251C7.21356 4.25037 7.48903 4.06619 7.79223 3.94051C8.09543 3.81482 8.42041 3.75009 8.74863 3.75H21.25C21.5782 3.74991 21.9032 3.81446 22.2065 3.93998C22.5098 4.0655 22.7853 4.24952 23.0175 4.48154C23.2496 4.71356 23.4338 4.98903 23.5595 5.29223C23.6852 5.59543 23.7499 5.92041 23.75 6.24863V7.83506" stroke="white" stroke-width="1.9" stroke-linecap="round" stroke-linejoin="round"/>
</g>
<defs>
<clipPath id="clip0_2057_2073">
<rect width="30" height="30" fill="white"/>
</clipPath>
</defs>
</svg>
