<svg width="30" height="30" viewBox="0 0 30 30" fill="none" xmlns="http://www.w3.org/2000/svg">
<g clip-path="url(#clip0_2057_2089)">
<path d="M19.1282 20.641L23.6769 24.6842C23.8835 24.8679 24.1451 24.9778 24.4208 24.997C24.6965 25.0161 24.9708 24.9434 25.2008 24.79L26.1326 24.1688C26.6842 23.801 27.0672 23.2291 27.1972 22.579L27.3544 21.7933C27.5724 20.7032 27.5454 19.5782 27.2753 18.4999L24.791 8.58305C24.6123 7.86945 24.2565 7.21244 23.7565 6.67279C23.2565 6.13315 22.6285 5.72828 21.9306 5.49565L21.1171 5.2245C20.0164 4.85759 18.815 4.94298 17.7771 5.46188L17.1619 5.76948C16.9884 5.85626 16.797 5.90145 16.6029 5.90145H13.3971C13.2031 5.90145 13.0117 5.85626 12.8381 5.76948L12.2229 5.46188C11.1851 4.94298 9.98365 4.85759 8.88289 5.2245L8.0694 5.49565C7.37149 5.72828 6.74351 6.13314 6.24353 6.67278C5.74356 7.21243 5.38774 7.86944 5.20897 8.58305L2.72479 18.4999C2.45466 19.5783 2.42763 20.7032 2.64566 21.7933L2.80281 22.579C2.93285 23.2292 3.31583 23.801 3.8675 24.1688L4.7993 24.7901C5.02926 24.9434 5.30354 25.0161 5.57926 24.997C5.85497 24.9778 6.11656 24.8679 6.32312 24.6842L10.8719 20.641C11.1007 20.4376 11.3962 20.3252 11.7023 20.3252H18.2978C18.6039 20.3252 18.8994 20.4376 19.1282 20.641Z" stroke="white" stroke-width="1.9" stroke-linecap="round" stroke-linejoin="round"/>
<path d="M8 13H14" stroke="white" stroke-width="1.9" stroke-linecap="round" stroke-linejoin="round"/>
<path d="M11 10V16" stroke="white" stroke-width="1.9" stroke-linecap="round" stroke-linejoin="round"/>
</g>
<defs>
<clipPath id="clip0_2057_2089">
<rect width="30" height="30" fill="white"/>
</clipPath>
</defs>
</svg>
