<svg width="30" height="30" viewBox="0 0 30 30" fill="none" xmlns="http://www.w3.org/2000/svg">
<g clip-path="url(#clip0_2057_2083)">
<path d="M27.5 4.99982V20.0001C27.5008 20.1737 27.4653 20.3456 27.3956 20.5047C27.326 20.6637 27.2238 20.8065 27.0956 20.9236C26.9675 21.0408 26.8162 21.1298 26.6515 21.185C26.4869 21.2402 26.3125 21.2602 26.1397 21.2439C18.7268 20.6082 11.2732 20.6082 3.86038 21.2439C3.6875 21.2602 3.51313 21.2402 3.34848 21.185C3.18383 21.1298 3.03257 21.0408 2.90442 20.9236C2.77627 20.8065 2.67408 20.6637 2.60443 20.5047C2.53477 20.3456 2.49921 20.1737 2.50001 20.0001V4.99982C2.49921 4.82618 2.53477 4.6543 2.60443 4.49524C2.67408 4.33618 2.77627 4.19346 2.90442 4.07629C3.03257 3.95912 3.18383 3.87008 3.34848 3.81492C3.51313 3.75975 3.6875 3.73968 3.86038 3.75599C11.2732 4.39169 18.7268 4.39169 26.1397 3.75599C26.3125 3.73968 26.4869 3.75975 26.6515 3.81492C26.8162 3.87008 26.9675 3.95912 27.0956 4.07629C27.2238 4.19346 27.326 4.33618 27.3956 4.49524C27.4653 4.6543 27.5008 4.82618 27.5 4.99982Z" stroke="white" stroke-width="1.9" stroke-linecap="round" stroke-linejoin="round"/>
<path d="M6.25 26.25C11.9643 24.5833 18.0357 24.5833 23.75 26.25" stroke="white" stroke-width="1.9" stroke-linecap="round" stroke-linejoin="round"/>
</g>
<defs>
<clipPath id="clip0_2057_2083">
<rect width="30" height="30" fill="white"/>
</clipPath>
</defs>
</svg>
