<svg width="50" height="50" viewBox="0 0 50 50" fill="none" xmlns="http://www.w3.org/2000/svg">
<path opacity="0.979" fill-rule="evenodd" clip-rule="evenodd" d="M18.3393 33.718C18.528 33.8244 18.7056 33.7945 18.8721 33.6286C24.4906 34.7372 29.7896 33.6195 34.7691 30.2755C34.8753 30.217 34.8753 30.1723 34.7691 30.1414C34.378 30.3679 33.9635 30.5467 33.5258 30.6779C33.4718 30.6668 33.4423 30.637 33.4369 30.5885C37.9077 28.534 39.9355 25.0169 39.5204 20.0374C38.8376 16.8361 37.0614 14.4814 34.1918 12.9735C31.9923 12.0034 29.7276 11.8395 27.3979 12.4817C26.522 12.7442 25.6932 13.1018 24.9112 13.5547C23.8455 13.6144 22.7798 13.6144 21.714 13.5547C21.2499 12.872 20.7763 12.2014 20.2931 11.5429C19.7291 10.8771 19.0926 10.2809 18.3837 9.75454C18.3244 9.63535 18.3244 9.51607 18.3837 9.39688C22.242 5.78697 26.8157 4.22219 32.1048 4.70253C37.9791 5.57649 42.3456 8.6017 45.2043 13.7783C47.4263 18.5147 47.6039 23.3432 45.7371 28.2637C45.4139 28.8072 45.1326 29.3735 44.8934 29.9626C44.3449 30.889 43.7381 31.7832 43.0728 32.6451C38.8248 36.9221 34.5766 41.1992 30.3286 45.4763C30.139 45.533 29.9614 45.5032 29.7957 45.3868C26.0981 41.6044 22.3829 37.8638 18.6501 34.1651C18.5488 34.0061 18.4452 33.857 18.3393 33.718Z" fill="white"/>
<path opacity="0.977" fill-rule="evenodd" clip-rule="evenodd" d="M11.2345 9.1286C15.7109 9.04983 18.8784 11.0319 20.7371 15.0748C24.0823 15.1045 27.4275 15.1344 30.7727 15.1642C31.3892 15.2816 31.9517 15.5201 32.4601 15.8795C33.977 17.4071 34.199 19.1209 33.1261 21.0209C32.8097 21.2691 32.5137 21.5373 32.238 21.8257C32.2451 23.5315 32.1563 25.2304 31.9716 26.9224C31.4997 27.8529 30.7448 28.2255 29.707 28.0401C29.0493 27.8755 28.5756 27.488 28.286 26.8777C28.1845 25.4946 28.1697 24.1087 28.2416 22.7198C28.6035 22.4854 28.9735 22.2619 29.3517 22.0492C28.5524 21.9896 27.7531 21.9896 26.9538 22.0492C26.7585 22.8124 26.2848 23.3191 25.5329 23.5693C23.6383 23.5991 21.7436 23.6289 19.849 23.6587C17.3076 27.1168 13.9328 28.4431 9.72471 27.6377C6.24407 26.6519 3.97942 24.4165 2.93075 20.9315C1.98226 15.9109 3.71406 12.23 8.12613 9.88864C9.14025 9.50102 10.1763 9.2477 11.2345 9.1286ZM11.5009 15.2089C13.7063 15.2386 14.9497 16.3563 15.2309 18.562C14.9803 20.4834 13.8998 21.5713 11.9894 21.8257C11.0819 21.7187 10.2974 21.3611 9.6359 20.7527C8.76033 19.721 8.5383 18.5586 8.96983 17.2655C9.33093 16.5658 9.83422 15.9995 10.4796 15.5666C10.78 15.4491 11.0909 15.3746 11.4121 15.343C11.4615 15.3088 11.4911 15.2641 11.5009 15.2089Z" fill="white"/>
<path fill-rule="evenodd" clip-rule="evenodd" d="M33.4369 30.5885C33.4423 30.637 33.4718 30.6668 33.5258 30.6779C33.9635 30.5467 34.378 30.3679 34.7691 30.1414C34.8753 30.1723 34.8753 30.2171 34.7691 30.2755C29.7896 33.6195 24.4906 34.7372 18.8721 33.6286C18.7056 33.7945 18.528 33.8244 18.3393 33.718C18.2308 33.6708 18.1273 33.6112 18.0284 33.5392C16.8352 32.2184 15.8139 30.7728 14.9645 29.2025C15.0533 29.1131 15.1421 29.0237 15.2309 28.9343C17.2108 28.2677 18.8982 27.15 20.2931 25.5812C20.3577 25.4298 20.4465 25.2957 20.5595 25.1788C21.2998 25.0577 21.7143 25.3855 21.8028 26.1624C23.6768 29.3469 26.4892 30.9863 30.2398 31.0803C30.3286 31.2591 30.4174 31.2591 30.5062 31.0803C31.5085 31.0448 32.4854 30.8809 33.4369 30.5885Z" fill="white"/>
</svg>
