<svg width="30" height="30" viewBox="0 0 30 30" fill="none" xmlns="http://www.w3.org/2000/svg">
<g clip-path="url(#clip0_2057_2050)">
<path d="M14.2212 22.44L9.60249 24.835C8.90502 25.204 8.04045 24.9378 7.67144 24.2403C7.52623 23.9658 7.47438 23.6516 7.52374 23.345L8.55499 17.415L4.18624 13.2163C3.62525 12.6772 3.60749 11.7854 4.14659 11.2244C4.36818 10.9938 4.66165 10.8455 4.97874 10.8038L11.0162 9.93877L13.7125 4.53877C14.0729 3.82908 14.9405 3.54598 15.6502 3.90644C15.9226 4.04484 16.1441 4.26628 16.2825 4.53877L18.985 9.93877L25.0225 10.8013C25.7939 10.9027 26.337 11.6103 26.2356 12.3817C26.1939 12.6981 26.0461 12.9911 25.8162 13.2125L23.3512 15.5813" stroke="white" stroke-width="1.9" stroke-linecap="round" stroke-linejoin="round"/>
<path d="M23.24 19.26C24.5546 20.5717 24.557 22.7007 23.2453 24.0153C21.9336 25.3299 19.8046 25.3323 18.49 24.0206C17.1754 22.7089 17.173 20.5799 18.4847 19.2653C18.4865 19.2635 18.4882 19.2618 18.49 19.26C19.8023 17.9497 21.9277 17.9497 23.24 19.26Z" stroke="white" stroke-width="1.9" stroke-linecap="round" stroke-linejoin="round"/>
<path d="M25.475 26.25L23.2375 24.0125" stroke="white" stroke-width="1.9" stroke-linecap="round" stroke-linejoin="round"/>
</g>
<defs>
<clipPath id="clip0_2057_2050">
<rect width="30" height="30" fill="white"/>
</clipPath>
</defs>
</svg>
