<?xml version="1.0" encoding="utf-8"?>

<!DOCTYPE svg PUBLIC "-//W3C//DTD SVG 1.1//EN" "http://www.w3.org/Graphics/SVG/1.1/DTD/svg11.dtd">
<!-- Uploaded to: SVG Repo, www.svgrepo.com, Generator: SVG Repo Mixer Tools -->
<svg height="800px" width="800px" version="1.1" id="_x32_" xmlns="http://www.w3.org/2000/svg" xmlns:xlink="http://www.w3.org/1999/xlink" 
	 viewBox="0 0 512 512"  xml:space="preserve">
<style type="text/css">
	.st0{fill:#000000;}
</style>
<g>
	<path class="st0" d="M391.646,312.925c0-9.576-7.766-17.332-17.34-17.332c-9.575,0-17.341,7.757-17.341,17.332
		c0,9.574,7.766,17.34,17.341,17.34C383.88,330.266,391.646,322.499,391.646,312.925z"/>
	<path class="st0" d="M259.026,330.266c9.575,0,17.341-7.766,17.341-17.34c0-9.576-7.766-17.332-17.341-17.332
		c-9.574,0-17.34,7.757-17.34,17.332C241.686,322.499,249.452,330.266,259.026,330.266z"/>
	<path class="st0" d="M143.757,295.593c-9.575,0-17.341,7.757-17.341,17.332c0,9.574,7.766,17.34,17.341,17.34
		c9.566,0,17.332-7.766,17.332-17.34C161.089,303.35,153.323,295.593,143.757,295.593z"/>
	<path class="st0" d="M323.069,363.288c-9.575,0-17.341,7.766-17.341,17.34c0,9.575,7.766,17.341,17.341,17.341
		c9.574,0,17.34-7.766,17.34-17.341C340.41,371.054,332.644,363.288,323.069,363.288z"/>
	<circle class="st0" cx="207.79" cy="380.629" r="17.341"/>
	<path class="st0" d="M143.757,432.942c-9.575,0-17.341,7.766-17.341,17.332c0,9.575,7.766,17.34,17.341,17.34
		s17.34-7.765,17.34-17.34C161.097,440.708,153.332,432.942,143.757,432.942z"/>
	<path class="st0" d="M259.036,432.942c-9.575,0-17.34,7.766-17.34,17.332c0,9.575,7.765,17.34,17.34,17.34
		c9.575,0,17.341-7.765,17.341-17.34C276.377,440.708,268.611,432.942,259.036,432.942z"/>
	<path class="st0" d="M374.306,432.942c-9.566,0-17.341,7.766-17.341,17.332c0,9.575,7.775,17.34,17.341,17.34
		c9.574,0,17.34-7.765,17.34-17.34C391.646,440.708,383.88,432.942,374.306,432.942z"/>
	<path class="st0" d="M481.475,210.83c-15.858-15.867-36.915-26.642-60.336-29.643c-2.048-36.746-17.808-69.945-42.227-94.337
		c-26.192-26.219-62.524-42.474-102.518-42.465c-37.462-0.009-71.728,14.261-97.435,37.612
		c-22.106,20.058-37.982,46.922-44.389,77.27c-6.204-1.033-12.558-1.607-19.026-1.607c-31.867-0.017-60.829,12.946-81.7,33.835
		C12.955,212.357-0.009,241.328,0,273.195c-0.009,31.858,12.955,60.838,33.843,81.7c20.871,20.888,49.834,33.843,81.7,33.834h28.858
		v-27.18h-28.858c-24.436-0.009-46.445-9.866-62.471-25.882c-16.017-16.036-25.875-38.026-25.883-62.472
		c0.008-24.445,9.866-46.446,25.883-62.48c16.026-16.008,38.035-25.875,62.471-25.875c9.125,0,17.879,1.377,26.13,3.928
		l15.849,4.898l1.694-16.494c3.044-29.651,17.077-56.038,38.018-75.047c20.959-19.008,48.634-30.551,79.158-30.56
		c32.564,0.009,61.932,13.166,83.298,34.505c21.338,21.356,34.496,50.725,34.506,83.307c0,1.147-0.054,2.489-0.107,4.05
		l-0.52,14.623l14.349-0.548c21.25,0.036,40.374,8.614,54.335,22.556c13.96,13.979,22.547,33.146,22.556,54.468
		c-0.009,21.312-8.596,40.48-22.556,54.458c-13.988,13.961-33.155,22.556-54.467,22.564h-18.373v27.18h18.373
		c28.733,0.009,54.872-11.683,73.688-30.516c18.84-18.823,30.534-44.954,30.525-73.688
		C512.009,255.784,500.316,229.644,481.475,210.83z"/>
</g>
</svg>