<?xml version="1.0" encoding="utf-8"?>

<!DOCTYPE svg PUBLIC "-//W3C//DTD SVG 1.1//EN" "http://www.w3.org/Graphics/SVG/1.1/DTD/svg11.dtd">
<!-- Uploaded to: SVG Repo, www.svgrepo.com, Generator: SVG Repo Mixer Tools -->
<svg height="800px" width="800px" version="1.1" id="_x32_" xmlns="http://www.w3.org/2000/svg" xmlns:xlink="http://www.w3.org/1999/xlink" 
	 viewBox="0 0 512 512"  xml:space="preserve">
<style type="text/css">
	.st0{fill:#000000;}
</style>
<g>
	<path class="st0" d="M481.474,191.366c-15.858-15.868-36.914-26.634-60.336-29.634c-2.048-36.756-17.809-69.946-42.228-94.348
		c-26.192-26.22-62.525-42.475-102.52-42.466c-37.462-0.009-71.73,14.261-97.437,37.612c-22.098,20.068-37.983,46.931-44.39,77.272
		c-6.204-1.033-12.549-1.607-19.027-1.607c-31.867-0.009-60.831,12.946-81.702,33.844C12.955,192.901-0.008,221.874,0,253.732
		c-0.008,31.866,12.955,60.839,33.836,81.702c20.87,20.888,49.834,33.844,81.702,33.844h74.368l3.494-27.19h-77.863
		c-24.436-0.009-46.446-9.866-62.472-25.883c-16.018-16.027-25.875-38.027-25.883-62.472c0.008-24.436,9.865-46.446,25.883-62.472
		c16.026-16.009,38.036-25.875,62.472-25.884c9.125,0,17.879,1.377,26.14,3.936l15.84,4.898l1.694-16.503
		c3.044-29.652,17.085-56.03,38.018-75.048c20.96-19,48.643-30.552,79.161-30.552c32.573,0,61.934,13.158,83.299,34.505
		c21.338,21.357,34.497,50.726,34.505,83.3c0,1.146-0.052,2.488-0.106,4.059l-0.52,14.623l14.35-0.557
		c21.25,0.044,40.374,8.622,54.336,22.557c13.961,13.988,22.556,33.156,22.556,54.468c0,21.312-8.596,40.48-22.556,54.458
		c-13.988,13.962-33.156,22.557-54.468,22.566h-39.527l-18.409,27.19h57.936c28.734,0,54.874-11.684,73.688-30.525
		c18.842-18.816,30.534-44.954,30.526-73.689C512.008,236.329,500.316,210.18,481.474,191.366z"/>
	<polygon class="st0" points="325.837,246.937 233.033,246.937 216.16,378.332 254.124,378.332 237.251,487.082 338.492,337.56 
		292.09,337.56 	"/>
</g>
</svg>